G04 #@! TF.GenerationSoftware,KiCad,Pcbnew,(6.0.1)*
G04 #@! TF.CreationDate,2022-01-18T01:04:23-05:00*
G04 #@! TF.ProjectId,SensorStick-TSL2572,53656e73-6f72-4537-9469-636b2d54534c,rev?*
G04 #@! TF.SameCoordinates,Original*
G04 #@! TF.FileFunction,Legend,Top*
G04 #@! TF.FilePolarity,Positive*
%FSLAX46Y46*%
G04 Gerber Fmt 4.6, Leading zero omitted, Abs format (unit mm)*
G04 Created by KiCad (PCBNEW (6.0.1)) date 2022-01-18 01:04:23*
%MOMM*%
%LPD*%
G01*
G04 APERTURE LIST*
%ADD10C,0.254000*%
%ADD11C,0.150000*%
%ADD12C,0.100000*%
%ADD13C,0.120000*%
G04 APERTURE END LIST*
D10*
X137376666Y-79604523D02*
X137376666Y-80511666D01*
X137316190Y-80693095D01*
X137195238Y-80814047D01*
X137013809Y-80874523D01*
X136892857Y-80874523D01*
X138646666Y-80874523D02*
X137920952Y-80874523D01*
X138283809Y-80874523D02*
X138283809Y-79604523D01*
X138162857Y-79785952D01*
X138041904Y-79906904D01*
X137920952Y-79967380D01*
D11*
X141452380Y-66266666D02*
X140976190Y-66600000D01*
X141452380Y-66838095D02*
X140452380Y-66838095D01*
X140452380Y-66457142D01*
X140500000Y-66361904D01*
X140547619Y-66314285D01*
X140642857Y-66266666D01*
X140785714Y-66266666D01*
X140880952Y-66314285D01*
X140928571Y-66361904D01*
X140976190Y-66457142D01*
X140976190Y-66838095D01*
X141452380Y-65314285D02*
X141452380Y-65885714D01*
X141452380Y-65600000D02*
X140452380Y-65600000D01*
X140595238Y-65695238D01*
X140690476Y-65790476D01*
X140738095Y-65885714D01*
X143852380Y-66366666D02*
X143376190Y-66700000D01*
X143852380Y-66938095D02*
X142852380Y-66938095D01*
X142852380Y-66557142D01*
X142900000Y-66461904D01*
X142947619Y-66414285D01*
X143042857Y-66366666D01*
X143185714Y-66366666D01*
X143280952Y-66414285D01*
X143328571Y-66461904D01*
X143376190Y-66557142D01*
X143376190Y-66938095D01*
X142852380Y-66033333D02*
X142852380Y-65414285D01*
X143233333Y-65747619D01*
X143233333Y-65604761D01*
X143280952Y-65509523D01*
X143328571Y-65461904D01*
X143423809Y-65414285D01*
X143661904Y-65414285D01*
X143757142Y-65461904D01*
X143804761Y-65509523D01*
X143852380Y-65604761D01*
X143852380Y-65890476D01*
X143804761Y-65985714D01*
X143757142Y-66033333D01*
X134457142Y-66266666D02*
X134504761Y-66314285D01*
X134552380Y-66457142D01*
X134552380Y-66552380D01*
X134504761Y-66695238D01*
X134409523Y-66790476D01*
X134314285Y-66838095D01*
X134123809Y-66885714D01*
X133980952Y-66885714D01*
X133790476Y-66838095D01*
X133695238Y-66790476D01*
X133600000Y-66695238D01*
X133552380Y-66552380D01*
X133552380Y-66457142D01*
X133600000Y-66314285D01*
X133647619Y-66266666D01*
X134552380Y-65314285D02*
X134552380Y-65885714D01*
X134552380Y-65600000D02*
X133552380Y-65600000D01*
X133695238Y-65695238D01*
X133790476Y-65790476D01*
X133838095Y-65885714D01*
X138052380Y-63466666D02*
X137576190Y-63800000D01*
X138052380Y-64038095D02*
X137052380Y-64038095D01*
X137052380Y-63657142D01*
X137100000Y-63561904D01*
X137147619Y-63514285D01*
X137242857Y-63466666D01*
X137385714Y-63466666D01*
X137480952Y-63514285D01*
X137528571Y-63561904D01*
X137576190Y-63657142D01*
X137576190Y-64038095D01*
X137147619Y-63085714D02*
X137100000Y-63038095D01*
X137052380Y-62942857D01*
X137052380Y-62704761D01*
X137100000Y-62609523D01*
X137147619Y-62561904D01*
X137242857Y-62514285D01*
X137338095Y-62514285D01*
X137480952Y-62561904D01*
X138052380Y-63133333D01*
X138052380Y-62514285D01*
D12*
X132730000Y-77015000D02*
X132730000Y-71935000D01*
X142890000Y-71935000D02*
X142890000Y-77015000D01*
D10*
X141720000Y-69700000D02*
G75*
G03*
X141720000Y-69700000I-50000J0D01*
G01*
D13*
X141910000Y-65597936D02*
X141910000Y-66802064D01*
X140090000Y-65597936D02*
X140090000Y-66802064D01*
X144210000Y-65597936D02*
X144210000Y-66802064D01*
X142390000Y-65597936D02*
X142390000Y-66802064D01*
X133290000Y-66702064D02*
X133290000Y-65497936D01*
X135110000Y-66702064D02*
X135110000Y-65497936D01*
X136997936Y-64310000D02*
X138202064Y-64310000D01*
X136997936Y-62490000D02*
X138202064Y-62490000D01*
M02*
