G04 #@! TF.GenerationSoftware,KiCad,Pcbnew,(6.0.1)*
G04 #@! TF.CreationDate,2022-01-18T01:04:25-05:00*
G04 #@! TF.ProjectId,SensorStick-TSL2572,53656e73-6f72-4537-9469-636b2d54534c,rev?*
G04 #@! TF.SameCoordinates,Original*
G04 #@! TF.FileFunction,AssemblyDrawing,Top*
%FSLAX46Y46*%
G04 Gerber Fmt 4.6, Leading zero omitted, Abs format (unit mm)*
G04 Created by KiCad (PCBNEW (6.0.1)) date 2022-01-18 01:04:25*
%MOMM*%
%LPD*%
G01*
G04 APERTURE LIST*
%ADD10C,0.150000*%
%ADD11C,0.120000*%
%ADD12C,0.100000*%
G04 APERTURE END LIST*
D10*
X128919880Y-68786904D02*
X129729404Y-68786904D01*
X129824642Y-68739285D01*
X129872261Y-68691666D01*
X129919880Y-68596428D01*
X129919880Y-68405952D01*
X129872261Y-68310714D01*
X129824642Y-68263095D01*
X129729404Y-68215476D01*
X128919880Y-68215476D01*
X129919880Y-67215476D02*
X129919880Y-67786904D01*
X129919880Y-67501190D02*
X128919880Y-67501190D01*
X129062738Y-67596428D01*
X129157976Y-67691666D01*
X129205595Y-67786904D01*
D11*
X141361904Y-66333333D02*
X140980952Y-66600000D01*
X141361904Y-66790476D02*
X140561904Y-66790476D01*
X140561904Y-66485714D01*
X140600000Y-66409523D01*
X140638095Y-66371428D01*
X140714285Y-66333333D01*
X140828571Y-66333333D01*
X140904761Y-66371428D01*
X140942857Y-66409523D01*
X140980952Y-66485714D01*
X140980952Y-66790476D01*
X141361904Y-65571428D02*
X141361904Y-66028571D01*
X141361904Y-65800000D02*
X140561904Y-65800000D01*
X140676190Y-65876190D01*
X140752380Y-65952380D01*
X140790476Y-66028571D01*
X143661904Y-66333333D02*
X143280952Y-66600000D01*
X143661904Y-66790476D02*
X142861904Y-66790476D01*
X142861904Y-66485714D01*
X142900000Y-66409523D01*
X142938095Y-66371428D01*
X143014285Y-66333333D01*
X143128571Y-66333333D01*
X143204761Y-66371428D01*
X143242857Y-66409523D01*
X143280952Y-66485714D01*
X143280952Y-66790476D01*
X142861904Y-66066666D02*
X142861904Y-65571428D01*
X143166666Y-65838095D01*
X143166666Y-65723809D01*
X143204761Y-65647619D01*
X143242857Y-65609523D01*
X143319047Y-65571428D01*
X143509523Y-65571428D01*
X143585714Y-65609523D01*
X143623809Y-65647619D01*
X143661904Y-65723809D01*
X143661904Y-65952380D01*
X143623809Y-66028571D01*
X143585714Y-66066666D01*
X134485714Y-66233333D02*
X134523809Y-66271428D01*
X134561904Y-66385714D01*
X134561904Y-66461904D01*
X134523809Y-66576190D01*
X134447619Y-66652380D01*
X134371428Y-66690476D01*
X134219047Y-66728571D01*
X134104761Y-66728571D01*
X133952380Y-66690476D01*
X133876190Y-66652380D01*
X133800000Y-66576190D01*
X133761904Y-66461904D01*
X133761904Y-66385714D01*
X133800000Y-66271428D01*
X133838095Y-66233333D01*
X134561904Y-65471428D02*
X134561904Y-65928571D01*
X134561904Y-65700000D02*
X133761904Y-65700000D01*
X133876190Y-65776190D01*
X133952380Y-65852380D01*
X133990476Y-65928571D01*
X137466666Y-63761904D02*
X137200000Y-63380952D01*
X137009523Y-63761904D02*
X137009523Y-62961904D01*
X137314285Y-62961904D01*
X137390476Y-63000000D01*
X137428571Y-63038095D01*
X137466666Y-63114285D01*
X137466666Y-63228571D01*
X137428571Y-63304761D01*
X137390476Y-63342857D01*
X137314285Y-63380952D01*
X137009523Y-63380952D01*
X137771428Y-63038095D02*
X137809523Y-63000000D01*
X137885714Y-62961904D01*
X138076190Y-62961904D01*
X138152380Y-63000000D01*
X138190476Y-63038095D01*
X138228571Y-63114285D01*
X138228571Y-63190476D01*
X138190476Y-63304761D01*
X137733333Y-63761904D01*
X138228571Y-63761904D01*
D12*
X141800000Y-67800000D02*
X140200000Y-67800000D01*
X140200000Y-64600000D02*
X141800000Y-64600000D01*
X141800000Y-64600000D02*
X141800000Y-67800000D01*
X140200000Y-67800000D02*
X140200000Y-64600000D01*
X144100000Y-67800000D02*
X142500000Y-67800000D01*
X144100000Y-64600000D02*
X144100000Y-67800000D01*
X142500000Y-67800000D02*
X142500000Y-64600000D01*
X142500000Y-64600000D02*
X144100000Y-64600000D01*
X133400000Y-67700000D02*
X133400000Y-64500000D01*
X135000000Y-67700000D02*
X133400000Y-67700000D01*
X133400000Y-64500000D02*
X135000000Y-64500000D01*
X135000000Y-64500000D02*
X135000000Y-67700000D01*
X136000000Y-64200000D02*
X136000000Y-62600000D01*
X139200000Y-62600000D02*
X139200000Y-64200000D01*
X139200000Y-64200000D02*
X136000000Y-64200000D01*
X136000000Y-62600000D02*
X139200000Y-62600000D01*
M02*
