G04 #@! TF.GenerationSoftware,KiCad,Pcbnew,(6.0.1)*
G04 #@! TF.CreationDate,2022-01-18T01:04:23-05:00*
G04 #@! TF.ProjectId,SensorStick-TSL2572,53656e73-6f72-4537-9469-636b2d54534c,rev?*
G04 #@! TF.SameCoordinates,Original*
G04 #@! TF.FileFunction,Copper,L2,Bot*
G04 #@! TF.FilePolarity,Positive*
%FSLAX46Y46*%
G04 Gerber Fmt 4.6, Leading zero omitted, Abs format (unit mm)*
G04 Created by KiCad (PCBNEW (6.0.1)) date 2022-01-18 01:04:23*
%MOMM*%
%LPD*%
G01*
G04 APERTURE LIST*
G04 #@! TA.AperFunction,ViaPad*
%ADD10C,0.800000*%
G04 #@! TD*
G04 #@! TA.AperFunction,Conductor*
%ADD11C,0.250000*%
G04 #@! TD*
G04 APERTURE END LIST*
D10*
X140300000Y-74500000D03*
X137800000Y-74500000D03*
X135300000Y-74400000D03*
X132400000Y-63200000D03*
X132200000Y-66100000D03*
X132200000Y-69200000D03*
X143600000Y-78900000D03*
X143700000Y-77200000D03*
X143700000Y-75500000D03*
X143600000Y-74000000D03*
X143700000Y-72400000D03*
X143600000Y-70500000D03*
X136300000Y-69000000D03*
X134200000Y-63000000D03*
X132400000Y-64600000D03*
X137400000Y-63700000D03*
X141000000Y-63724500D03*
X134200000Y-65900000D03*
X139400000Y-67400000D03*
X137000000Y-85000000D03*
X134000000Y-85000000D03*
X137000000Y-83000000D03*
X137000000Y-81000000D03*
X134000000Y-81000000D03*
X140000000Y-81000000D03*
X143000000Y-83000000D03*
X140000000Y-85000000D03*
X143000000Y-81000000D03*
X140000000Y-83000000D03*
X134000000Y-83000000D03*
X143000000Y-85000000D03*
D11*
X141000000Y-63724500D02*
X137424500Y-63724500D01*
X137424500Y-63724500D02*
X137400000Y-63700000D01*
G04 #@! TA.AperFunction,Conductor*
G36*
X144434121Y-62528002D02*
G01*
X144480614Y-62581658D01*
X144492000Y-62634000D01*
X144492000Y-86366000D01*
X144471998Y-86434121D01*
X144418342Y-86480614D01*
X144366000Y-86492000D01*
X131634000Y-86492000D01*
X131565879Y-86471998D01*
X131519386Y-86418342D01*
X131508000Y-86366000D01*
X131508000Y-63700000D01*
X136486496Y-63700000D01*
X136506458Y-63889928D01*
X136565473Y-64071556D01*
X136660960Y-64236944D01*
X136788747Y-64378866D01*
X136943248Y-64491118D01*
X136949276Y-64493802D01*
X136949278Y-64493803D01*
X137111681Y-64566109D01*
X137117712Y-64568794D01*
X137211112Y-64588647D01*
X137298056Y-64607128D01*
X137298061Y-64607128D01*
X137304513Y-64608500D01*
X137495487Y-64608500D01*
X137501939Y-64607128D01*
X137501944Y-64607128D01*
X137588888Y-64588647D01*
X137682288Y-64568794D01*
X137688319Y-64566109D01*
X137850722Y-64493803D01*
X137850724Y-64493802D01*
X137856752Y-64491118D01*
X138006852Y-64382064D01*
X138073718Y-64358206D01*
X138080912Y-64358000D01*
X140291800Y-64358000D01*
X140359921Y-64378002D01*
X140379147Y-64394343D01*
X140379420Y-64394040D01*
X140384332Y-64398463D01*
X140388747Y-64403366D01*
X140543248Y-64515618D01*
X140549276Y-64518302D01*
X140549278Y-64518303D01*
X140665765Y-64570166D01*
X140717712Y-64593294D01*
X140811113Y-64613147D01*
X140898056Y-64631628D01*
X140898061Y-64631628D01*
X140904513Y-64633000D01*
X141095487Y-64633000D01*
X141101939Y-64631628D01*
X141101944Y-64631628D01*
X141188887Y-64613147D01*
X141282288Y-64593294D01*
X141334235Y-64570166D01*
X141450722Y-64518303D01*
X141450724Y-64518302D01*
X141456752Y-64515618D01*
X141611253Y-64403366D01*
X141629817Y-64382749D01*
X141734621Y-64266352D01*
X141734622Y-64266351D01*
X141739040Y-64261444D01*
X141834527Y-64096056D01*
X141893542Y-63914428D01*
X141913504Y-63724500D01*
X141893542Y-63534572D01*
X141834527Y-63352944D01*
X141739040Y-63187556D01*
X141611253Y-63045634D01*
X141456752Y-62933382D01*
X141450724Y-62930698D01*
X141450722Y-62930697D01*
X141288319Y-62858391D01*
X141288318Y-62858391D01*
X141282288Y-62855706D01*
X141179657Y-62833891D01*
X141101944Y-62817372D01*
X141101939Y-62817372D01*
X141095487Y-62816000D01*
X140904513Y-62816000D01*
X140898061Y-62817372D01*
X140898056Y-62817372D01*
X140820343Y-62833891D01*
X140717712Y-62855706D01*
X140711682Y-62858391D01*
X140711681Y-62858391D01*
X140549278Y-62930697D01*
X140549276Y-62930698D01*
X140543248Y-62933382D01*
X140388747Y-63045634D01*
X140384332Y-63050537D01*
X140379420Y-63054960D01*
X140378295Y-63053711D01*
X140324986Y-63086551D01*
X140291800Y-63091000D01*
X138130260Y-63091000D01*
X138062139Y-63070998D01*
X138036624Y-63049311D01*
X138015668Y-63026037D01*
X138015666Y-63026036D01*
X138011253Y-63021134D01*
X137856752Y-62908882D01*
X137850724Y-62906198D01*
X137850722Y-62906197D01*
X137688319Y-62833891D01*
X137688318Y-62833891D01*
X137682288Y-62831206D01*
X137588888Y-62811353D01*
X137501944Y-62792872D01*
X137501939Y-62792872D01*
X137495487Y-62791500D01*
X137304513Y-62791500D01*
X137298061Y-62792872D01*
X137298056Y-62792872D01*
X137211112Y-62811353D01*
X137117712Y-62831206D01*
X137111682Y-62833891D01*
X137111681Y-62833891D01*
X136949278Y-62906197D01*
X136949276Y-62906198D01*
X136943248Y-62908882D01*
X136788747Y-63021134D01*
X136784326Y-63026044D01*
X136784325Y-63026045D01*
X136759415Y-63053711D01*
X136660960Y-63163056D01*
X136565473Y-63328444D01*
X136506458Y-63510072D01*
X136486496Y-63700000D01*
X131508000Y-63700000D01*
X131508000Y-62634000D01*
X131528002Y-62565879D01*
X131581658Y-62519386D01*
X131634000Y-62508000D01*
X144366000Y-62508000D01*
X144434121Y-62528002D01*
G37*
G04 #@! TD.AperFunction*
M02*
