M48
INCH,TZ
T1C0.0157
%
G90
G05
T1
X52047Y-26024
X52047Y-27244
X52126Y-24882
X52126Y-25433
X52756Y-31890
X52756Y-32677
X52756Y-33465
X52835Y-24803
X52835Y-25945
X53268Y-29291
X53661Y-27165
X53937Y-31890
X53937Y-32677
X53937Y-33465
X54094Y-25079
X54252Y-29331
X54882Y-26535
X55118Y-31890
X55118Y-32677
X55118Y-33465
X55236Y-29331
X55512Y-25088
X56299Y-31890
X56299Y-32677
X56299Y-33465
X56535Y-27756
X56535Y-29134
X56535Y-31063
X56575Y-28504
X56575Y-29724
X56575Y-30394
T0
M30
